<?xml version="1.0" encoding="iso-8859-1"?>
<!-- Generator: Adobe Illustrator 19.0.0, SVG Export Plug-In . SVG Version: 6.00 Build 0)  -->
<svg version="1.1" id="Layer_1" xmlns="http://www.w3.org/2000/svg" xmlns:xlink="http://www.w3.org/1999/xlink" x="0px" y="0px"
	 viewBox="0 0 512 512" style="enable-background:new 0 0 512 512;" xml:space="preserve">
<path style="fill:#008D75;" d="M256,0C114.615,0,0,114.616,0,256c0,113.691,74.12,210.055,176.668,243.45L499.45,176.668
	C466.054,74.12,369.691,0,256,0z"/>
<path style="fill:#006654;" d="M512,256c0-27.694-4.415-54.353-12.551-79.333l-87.623-87.623l-29.217,59.826l-59.826-59.826
	L100.174,422.957l76.494,76.494C201.647,507.585,228.306,512,256,512C397.384,512,512,397.384,512,256z"/>
<polygon style="fill:#F7EDBC;" points="211.478,89.043 166.957,278.261 322.783,256 322.783,89.043 "/>
<polygon style="fill:#FFFFFF;" points="100.174,89.043 100.174,256 211.478,278.261 211.478,89.043 "/>
<g>
	<rect x="122.435" y="155.826" style="fill:#F7EDBC;" width="22.261" height="22.261"/>
	<rect x="144.696" y="111.304" style="fill:#F7EDBC;" width="22.261" height="22.261"/>
</g>
<polygon style="fill:#FFD652;" points="300.522,166.957 300.522,189.217 266.301,211.478 232.081,189.217 232.081,166.957 "/>
<rect x="232.081" y="189.217" style="fill:#FFFFFF;" width="68.441" height="44.522"/>
<polygon style="fill:#FFD652;" points="211.478,256 163.247,339.478 211.478,422.957 322.783,422.957 322.783,256 "/>
<rect x="100.174" y="256" style="fill:#F7EDBC;" width="111.304" height="166.957"/>
<rect x="122.435" y="278.261" style="fill:#FFD652;" width="22.261" height="22.261"/>
<polygon style="fill:#FDBA4C;" points="300.522,333.913 300.522,356.174 266.301,378.435 232.081,356.174 232.081,333.913 "/>
<rect x="232.081" y="356.174" style="fill:#FFFFFF;" width="68.441" height="44.522"/>
<polygon style="fill:#AFF078;" points="411.826,422.957 345.043,422.957 345.043,89.043 411.826,89.043 411.826,111.304 
	400.696,122.436 411.826,133.566 411.826,183.652 400.696,194.784 411.826,205.914 411.826,255.999 400.696,267.132 
	411.826,278.262 411.826,328.347 400.696,339.478 411.826,350.609 "/>
<g>
	<polygon style="fill:#85DC79;" points="411.826,133.566 378.434,133.566 389.564,111.304 411.826,111.304 	"/>
	<rect x="378.435" y="183.652" style="fill:#85DC79;" width="33.391" height="22.261"/>
	<rect x="378.435" y="256" style="fill:#85DC79;" width="33.391" height="22.261"/>
	<rect x="378.435" y="328.348" style="fill:#85DC79;" width="33.391" height="22.261"/>
</g>
<polygon style="fill:#FFFFFF;" points="389.564,111.304 389.564,183.652 378.434,194.783 367.303,183.652 367.303,111.304 "/>
<polygon style="fill:#5AC779;" points="389.564,183.652 389.564,256 378.434,267.13 367.303,256 367.303,183.652 "/>
<polygon style="fill:#00A085;" points="389.564,256 389.564,328.348 378.434,339.478 367.303,328.348 367.303,256 "/>
<rect x="367.304" y="328.348" style="fill:#FF7452;" width="22.261" height="72.348"/>
<g>
</g>
<g>
</g>
<g>
</g>
<g>
</g>
<g>
</g>
<g>
</g>
<g>
</g>
<g>
</g>
<g>
</g>
<g>
</g>
<g>
</g>
<g>
</g>
<g>
</g>
<g>
</g>
<g>
</g>
</svg>
