<?xml version="1.0" encoding="iso-8859-1"?>
<!-- Generator: Adobe Illustrator 18.0.0, SVG Export Plug-In . SVG Version: 6.00 Build 0)  -->
<!DOCTYPE svg PUBLIC "-//W3C//DTD SVG 1.1//EN" "http://www.w3.org/Graphics/SVG/1.1/DTD/svg11.dtd">
<svg version="1.1" id="Capa_1" xmlns="http://www.w3.org/2000/svg" xmlns:xlink="http://www.w3.org/1999/xlink" x="0px" y="0px"
	 viewBox="0 0 131.413 131.413" style="enable-background:new 0 0 131.413 131.413;" xml:space="preserve">
<g>
	<circle style="fill:#F8BB17;" cx="65.707" cy="65.707" r="65.706"/>
	<g>
		<g>
			<polygon style="fill:#F26C25;" points="103.67,43.09 68.245,43.09 68.245,28.21 103.67,28.21 112.085,35.305 			"/>
			<polygon style="fill:#E05A13;" points="30.488,47.928 65.914,47.928 65.914,62.806 30.488,62.806 22.073,55.712 			"/>
			<rect x="64.966" y="20.399" style="fill:#EDEDED;" width="1.589" height="88.537"/>
			<rect x="66.555" y="20.399" style="fill:#FFFFFF;" width="1.612" height="88.537"/>
		</g>
		<g>
			<path style="fill:#FFFFFF;" d="M56.814,103.844c0-0.548,0.449-0.996,0.997-0.996h18.486c0.549,0,0.996,0.448,0.996,0.996v4.096
				c0,0.548-0.447,0.996-0.996,0.996H57.811c-0.548,0-0.997-0.448-0.997-0.996V103.844z"/>
			<path style="fill:#EDEDED;" d="M55.816,103.844c0-0.548,0.495-0.996,1.1-0.996h9.64v6.089h-9.64c-0.604,0-1.1-0.448-1.1-0.996
				V103.844z"/>
		</g>
	</g>
</g>
<g>
</g>
<g>
</g>
<g>
</g>
<g>
</g>
<g>
</g>
<g>
</g>
<g>
</g>
<g>
</g>
<g>
</g>
<g>
</g>
<g>
</g>
<g>
</g>
<g>
</g>
<g>
</g>
<g>
</g>
</svg>
